<?xml version="1.0" encoding="UTF-8" standalone="no"?>
<!-- Created with Inkscape (http://www.inkscape.org/) -->

<svg
   xmlns:dc="http://purl.org/dc/elements/1.1/"
   xmlns:cc="http://creativecommons.org/ns#"
   xmlns:rdf="http://www.w3.org/1999/02/22-rdf-syntax-ns#"
   xmlns:svg="http://www.w3.org/2000/svg"
   xmlns="http://www.w3.org/2000/svg"
   xmlns:sodipodi="http://sodipodi.sourceforge.net/DTD/sodipodi-0.dtd"
   xmlns:inkscape="http://www.inkscape.org/namespaces/inkscape"
   width="210mm"
   height="297mm"
   viewBox="0 0 744.09448819 1052.3622047"
   id="svg2"
   version="1.1"
   inkscape:version="0.91 r13725"
   sodipodi:docname="king.svg">
  <defs
     id="defs4">
    <inkscape:path-effect
       effect="spiro"
       id="path-effect4159"
       is_visible="true" />
    <inkscape:path-effect
       is_visible="true"
       id="path-effect4151"
       effect="spiro" />
    <inkscape:path-effect
       effect="spiro"
       id="path-effect4147"
       is_visible="true" />
    <inkscape:path-effect
       effect="spiro"
       id="path-effect4219"
       is_visible="true" />
  </defs>
  <sodipodi:namedview
     id="base"
     pagecolor="#ffffff"
     bordercolor="#666666"
     borderopacity="1.0"
     inkscape:pageopacity="0.0"
     inkscape:pageshadow="2"
     inkscape:zoom="0.70710678"
     inkscape:cx="149.27011"
     inkscape:cy="565.62444"
     inkscape:document-units="px"
     inkscape:current-layer="layer2"
     showgrid="false"
     inkscape:window-width="1378"
     inkscape:window-height="734"
     inkscape:window-x="0"
     inkscape:window-y="1"
     inkscape:window-maximized="0" />
  <metadata
     id="metadata7">
    <rdf:RDF>
      <cc:Work
         rdf:about="">
        <dc:format>image/svg+xml</dc:format>
        <dc:type
           rdf:resource="http://purl.org/dc/dcmitype/StillImage" />
        <dc:title />
      </cc:Work>
    </rdf:RDF>
  </metadata>
  <g
     inkscape:groupmode="layer"
     id="layer2"
     inkscape:label="Layer 2">
    <g
       id="g4164">
      <g
         transform="translate(-72,-42)"
         id="g4161">
        <path
           style="opacity:0.95;fill:none;fill-opacity:1;stroke:#000000;stroke-width:5.0385108;stroke-linecap:round;stroke-linejoin:round;stroke-miterlimit:4;stroke-dasharray:none;stroke-dashoffset:0;stroke-opacity:1"
           id="path4207"
           sodipodi:type="arc"
           sodipodi:cx="443.45697"
           sodipodi:cy="506.37473"
           sodipodi:rx="229.36732"
           sodipodi:ry="188.45897"
           sodipodi:start="2.5679727"
           sodipodi:end="2.5634349"
           sodipodi:open="true"
           d="m 250.80172,608.64691 a 229.36732,188.45897 0 0 1 67.9646,-260.45067 229.36732,188.45897 0 0 1 317.06299,55.54741 229.36732,188.45897 0 0 1 -67.24521,260.5767 229.36732,188.45897 0 0 1 -317.21557,-54.95618" />
        <path
           style="opacity:0.95;fill:none;fill-opacity:1;stroke:#000000;stroke-width:10;stroke-linecap:round;stroke-linejoin:round;stroke-miterlimit:4;stroke-dasharray:none;stroke-dashoffset:0;stroke-opacity:1"
           id="path4215"
           sodipodi:type="arc"
           sodipodi:cx="437.39603"
           sodipodi:cy="501.32397"
           sodipodi:rx="143.77267"
           sodipodi:ry="117.98628"
           sodipodi:start="2.5679727"
           sodipodi:end="2.5634349"
           sodipodi:open="true"
           d="M 316.63532,565.35232 A 143.77267,117.98628 0 0 1 359.23708,402.29504 143.77267,117.98628 0 0 1 557.9794,437.07095 143.77267,117.98628 0 0 1 515.82857,600.20713 143.77267,117.98628 0 0 1 316.99061,565.80136" />
        <path
           inkscape:connector-curvature="0"
           inkscape:original-d="m 673.08592,514.27965 -0.87096,63.47006"
           inkscape:path-effect="#path-effect4151"
           id="path4149"
           d="m 673.08592,514.27965 -0.87096,63.47006"
           style="fill:none;fill-rule:evenodd;stroke:#000000;stroke-width:4.34992075;stroke-linecap:round;stroke-linejoin:miter;stroke-miterlimit:4;stroke-dasharray:none;stroke-opacity:1" />
        <path
           d="M 672.15724,579.78916 A 232.02217,188.5078 0 0 1 440.09483,736.51755 232.02217,188.5078 0 0 1 213.71104,574.39966"
           sodipodi:end="3.0012433"
           sodipodi:start="0.16928682"
           sodipodi:ry="188.5078"
           sodipodi:rx="232.02217"
           sodipodi:cy="548.02948"
           sodipodi:cx="443.45178"
           sodipodi:type="arc"
           id="path4155"
           style="opacity:0.95;fill:none;fill-opacity:1;stroke:#000000;stroke-width:5.06824303;stroke-linecap:round;stroke-linejoin:round;stroke-miterlimit:4;stroke-dasharray:none;stroke-dashoffset:0;stroke-opacity:1"
           sodipodi:open="true" />
        <path
           style="fill:none;fill-rule:evenodd;stroke:#000000;stroke-width:4.4030695;stroke-linecap:round;stroke-linejoin:miter;stroke-miterlimit:4;stroke-dasharray:none;stroke-opacity:1"
           d="m 213.38537,506.05185 0.44436,66.42045"
           id="path4157"
           inkscape:path-effect="#path-effect4159"
           inkscape:original-d="m 213.38537,506.05185 0.44436,66.42045"
           inkscape:connector-curvature="0" />
      </g>
      <path
         inkscape:connector-curvature="0"
         id="path4161"
         d="m 291.05674,501.83624 c -7.84773,-19.43294 -15.19347,-37.93538 -21.66701,-54.57485 l -2.88407,-7.41316 -1.34259,0.46803 c -2.09181,0.72921 -5.92816,0.22911 -7.57339,-0.98726 -0.78643,-0.58143 -2.0128,-2.11714 -2.72527,-3.41269 -2.67272,-4.86007 -1.34412,-10.42961 3.2171,-13.48614 3.77369,-2.52881 7.96053,-1.78514 11.28836,2.00505 2.35152,2.67824 2.91495,4.47272 2.64905,8.43707 l -0.23089,3.44246 3.04356,1.77222 c 15.33155,8.92736 17.77886,10.01651 22.65346,10.08178 2.72342,0.0364 3.31677,-0.12063 5.04894,-1.33678 3.79175,-2.66214 5.62287,-7.82779 6.41367,-18.09313 0.28209,-3.66185 0.3678,-7.43134 0.19046,-8.37665 -0.27795,-1.48158 -0.49373,-1.71908 -1.56387,-1.72129 -6.51626,-0.0134 -10.78913,-7.31062 -7.94606,-13.57025 1.68162,-3.70246 6.74805,-6.47505 11.07271,-6.0595 7.2012,0.69194 10.06693,10.76747 4.69603,16.51061 l -1.15846,1.23875 3.76586,4.03969 c 6.74404,7.23443 12.43357,11.99691 16.33749,13.67549 2.64397,1.13682 6.17847,1.05483 8.19276,-0.19007 5.74407,-3.55003 11.73832,-16.37973 17.01871,-36.42574 1.60513,-6.09354 1.7004,-7.21509 0.61287,-7.21509 -1.0178,0 -3.60864,-2.40054 -4.52101,-4.18894 -2.77272,-5.43496 -0.61716,-12.7459 4.30516,-14.60169 0.71066,-0.26793 2.65929,-0.48715 4.33028,-0.48715 5.94416,0 9.31956,2.97382 9.67284,8.52204 0.24022,3.77258 -1.03544,6.59558 -3.88947,8.60729 -1.09801,0.77394 -1.99638,1.58088 -1.99638,1.79319 0,0.73975 4.66882,16.23512 6.74126,22.37361 4.83236,14.31328 8.43658,20.13696 13.37899,21.61774 4.29911,1.28805 10.49271,-2.34205 19.56482,-11.46702 l 5.94895,-5.98363 -1.27042,-1.32603 c -1.64717,-1.71928 -2.72123,-5.2471 -2.3282,-7.64711 0.54087,-3.3028 2.68931,-6.46276 5.33301,-7.84389 1.80006,-0.94039 5.73896,-0.79261 8.16995,0.30652 4.68729,2.1193 6.92588,6.13105 5.97556,10.70871 -0.89016,4.2879 -3.62244,6.96868 -8.87954,8.71218 -0.77489,0.25699 -0.816,0.72206 -0.54195,6.13114 0.63205,12.47468 2.90095,19.30794 7.11788,21.43693 1.98794,1.00365 3.89534,1.13813 6.98215,0.49229 3.689,-0.77184 7.61324,-2.69063 17.22101,-8.42037 5.43448,-3.24093 7.38174,-4.62909 7.19807,-5.13132 -1.13185,-3.09514 -1.21898,-4.43082 -0.45947,-7.04345 1.66168,-5.71597 7.84255,-9.09536 12.82655,-7.01291 2.87982,1.20326 5.80311,6.0441 5.80311,9.60967 0,3.64285 -2.32728,7.41399 -5.60842,9.08789 -1.75718,0.89645 -4.46122,1.01553 -7.87342,0.34671 -0.72886,-0.14287 -1.2001,0.80811 -3.1008,6.25746 -6.48143,18.58246 -13.18649,35.7856 -23.34602,59.8988 -2.8186,6.68984 -5.55882,13.26994 -6.08935,14.62243 -0.95309,2.4297 -0.9842,2.45613 -2.60326,2.21228 -14.94064,-2.25032 -22.03238,-3.18917 -29.86681,-3.95396 -33.11301,-3.23244 -66.58302,-2.10236 -93.6349,3.16148 -2.6507,0.51579 -4.9444,0.93841 -5.09712,0.93918 -0.15272,9.1e-4 -4.01033,-9.24162 -8.57247,-20.53862 z m 19.28957,17.33501 c 16.27681,-2.78026 30.19169,-3.81535 51.29535,-3.81574 22.03714,-4.1e-4 38.54272,1.2542 59.60367,4.53056 4.12928,0.64238 7.60004,1.07569 7.7128,0.96293 0.19088,-0.19087 5.17225,-11.88835 8.63412,-20.275 10.76099,-26.06935 14.58916,-35.90662 20.45173,-52.55488 1.82239,-5.17517 3.49481,-9.88876 3.71648,-10.47466 l 0.40303,-1.06526 1.19305,0.93845 c 4.67567,3.67789 12.11579,-0.98616 12.11579,-7.59512 0,-2.68783 -1.36901,-5.62503 -3.48961,-7.48694 -1.34923,-1.18464 -1.96494,-1.39716 -4.0479,-1.39716 -6.12362,0 -10.63214,6.6473 -8.29781,12.23416 0.37867,0.90629 0.6885,1.82251 0.6885,2.03606 0,0.7546 -18.13201,11.18798 -22.00513,12.66203 -7.56782,2.8802 -12.47368,1.77937 -15.70268,-3.52352 -2.1625,-3.5514 -3.595,-11.63552 -3.599,-20.31051 l -0.003,-5.85218 1.49173,-0.008 c 2.14162,-0.0108 4.92791,-1.75913 6.47513,-4.06289 3.54399,-5.27685 1.04368,-11.27606 -5.49131,-13.17583 -3.36893,-0.97937 -5.41808,-0.42569 -7.67661,2.07423 -3.31415,3.66838 -3.4253,8.48966 -0.26847,11.64649 l 1.78917,1.78916 -0.8751,1.21244 c -0.4813,0.66684 -3.52599,3.81386 -6.76597,6.99338 -8.3319,8.1764 -12.82159,10.97234 -17.61927,10.97234 -3.07327,0 -4.87809,-0.83188 -7.1355,-3.28892 -4.41583,-4.80629 -7.56365,-12.5316 -13.96521,-34.27298 -1.28853,-4.37621 -2.43869,-8.20665 -2.55589,-8.51208 -0.12085,-0.31493 0.5886,-0.90904 1.63886,-1.37241 3.54287,-1.56311 5.73491,-6.24766 4.5767,-9.78072 -1.37052,-4.18066 -3.72052,-5.84926 -8.2162,-5.83384 -5.2941,0.0181 -8.30218,2.6526 -8.65884,7.58331 -0.34051,4.70745 1.53725,8.04592 5.26519,9.36097 0.97061,0.34238 1.72814,0.79605 1.6834,1.00813 -0.4885,2.31586 -2.79641,10.88627 -4.08174,15.15756 -8.50013,28.24673 -16.14269,35.83857 -28.24483,28.05738 -2.86872,-1.84448 -12.48412,-10.91892 -16.05451,-15.15129 l -1.7948,-2.12757 1.79053,-1.79053 c 2.3124,-2.3124 3.10207,-4.99959 2.38519,-8.11657 -1.28586,-5.59088 -5.72897,-7.72257 -11.06332,-5.3079 -2.94535,1.33325 -4.52449,3.03317 -5.28348,5.68755 -1.54793,5.41348 1.98589,10.34013 7.41683,10.34013 l 2.45659,0 -0.002,6.77017 c -0.005,16.98697 -3.62119,24.76184 -11.75926,25.28003 -5.2205,0.33242 -9.80306,-1.46431 -21.18436,-8.30596 -3.6043,-2.16665 -6.77316,-4.01267 -7.04192,-4.10226 -0.32308,-0.10769 -0.22453,-0.97035 0.29086,-2.54608 0.67005,-2.04856 0.69952,-2.71663 0.20985,-4.75781 -0.61334,-2.55666 -2.85255,-5.47165 -5.09327,-6.63038 -5.15541,-2.66597 -11.53179,2.46452 -10.79498,8.68572 0.40696,3.43615 2.33761,6.26012 5.0477,7.38328 2.12573,0.88099 2.27333,0.88482 4.34684,0.11296 1.18052,-0.43944 2.33243,-0.84544 2.55981,-0.9022 0.22737,-0.0568 1.43791,2.5819 2.69007,5.86371 2.06541,5.41323 28.1834,71.01497 29.94094,75.20401 0.64056,1.52674 0.89164,1.72693 1.86085,1.48367 0.61622,-0.15466 4.68456,-0.89 9.04076,-1.63409 z"
         style="fill:#000000;stroke:#000000;stroke-opacity:1;stroke-width:2;stroke-miterlimit:4;stroke-dasharray:none" />
    </g>
  </g>
  <g
     inkscape:label="Layer 1"
     inkscape:groupmode="layer"
     id="layer1" />
</svg>
